<svg xmlns="http://www.w3.org/2000/svg" viewBox="0 0 25 25" height="25" width="25"><title>airport-15.svg</title><rect fill="none" x="0" y="0" width="25" height="25"></rect><path fill="#000" transform="translate(5 5)" d="M15,6.8182L15,8.5l-6.5-1
	l-0.3182,4.7727L11,14v1l-3.5-0.6818L4,15v-1l2.8182-1.7273L6.5,7.5L0,8.5V6.8182L6.5,4.5v-3c0,0,0-1.5,1-1.5s1,1.5,1,1.5v2.8182
	L15,6.8182z" style="stroke-linejoin:round;stroke-miterlimit:4;" stroke="#000" stroke-width="10"></path><path fill="#fff" transform="translate(5 5)" d="M15,6.8182L15,8.5l-6.5-1
	l-0.3182,4.7727L11,14v1l-3.5-0.6818L4,15v-1l2.8182-1.7273L6.5,7.5L0,8.5V6.8182L6.5,4.5v-3c0,0,0-1.5,1-1.5s1,1.5,1,1.5v2.8182
	L15,6.8182z"></path></svg>