<svg xmlns="http://www.w3.org/2000/svg" viewBox="0 0 21 21" height="21" width="21"><title>building-11.svg</title><rect fill="none" x="0" y="0" width="21" height="21"></rect><path fill="#000" transform="translate(5 5)" d="M2,1v9h4V6h2v4h1V1H2z M5,9H3V6h2V9z M5,5H3V3h2V5z M8,5H6V3h2V5z" style="stroke-linejoin:round;stroke-miterlimit:4;" stroke="#000" stroke-width="10"></path><path fill="#fff" transform="translate(5 5)" d="M2,1v9h4V6h2v4h1V1H2z M5,9H3V6h2V9z M5,5H3V3h2V5z M8,5H6V3h2V5z"></path></svg>