<svg xmlns="http://www.w3.org/2000/svg" viewBox="0 0 25 25" height="25" width="25"><title>fire-station-JP-15.svg</title><rect fill="none" x="0" y="0" width="25" height="25"></rect><path fill="#000" transform="translate(5 5)" d="M8.5,8.1489V11.75a1,1,0,0,1-2,0V8.1489A5.0084,5.0084,0,0,1,2.5,3.25a1,1,0,0,1,2,0,3,3,0,0,0,6,0,1,1,0,0,1,2,0A5.0082,5.0082,0,0,1,8.5,8.1489Z" style="stroke-linejoin:round;stroke-miterlimit:4;" stroke="#000" stroke-width="10"></path><path fill="#fff" transform="translate(5 5)" d="M8.5,8.1489V11.75a1,1,0,0,1-2,0V8.1489A5.0084,5.0084,0,0,1,2.5,3.25a1,1,0,0,1,2,0,3,3,0,0,0,6,0,1,1,0,0,1,2,0A5.0082,5.0082,0,0,1,8.5,8.1489Z"></path></svg>