<svg xmlns="http://www.w3.org/2000/svg" viewBox="0 0 21 21" height="21" width="21"><title>landmark-JP-11.svg</title><rect fill="none" x="0" y="0" width="21" height="21"></rect><path fill="#000" transform="translate(5 5)" d="M6.75,3.5A1.25,1.25,0,1,1,5.5,2.25,1.25,1.25,0,0,1,6.75,3.5Zm-4,2.75A1.25,1.25,0,1,0,4,7.5,1.25,1.25,0,0,0,2.75,6.25Zm5.5,0A1.25,1.25,0,1,0,9.5,7.5,1.25,1.25,0,0,0,8.25,6.25Z" style="stroke-linejoin:round;stroke-miterlimit:4;" stroke="#000" stroke-width="10"></path><path fill="#fff" transform="translate(5 5)" d="M6.75,3.5A1.25,1.25,0,1,1,5.5,2.25,1.25,1.25,0,0,1,6.75,3.5Zm-4,2.75A1.25,1.25,0,1,0,4,7.5,1.25,1.25,0,0,0,2.75,6.25Zm5.5,0A1.25,1.25,0,1,0,9.5,7.5,1.25,1.25,0,0,0,8.25,6.25Z"></path></svg>