<svg xmlns="http://www.w3.org/2000/svg" data-name="Layer 1" viewBox="0 0 64 80" x="0px" y="0px"><path d="M18,39.575l-2,2L26,53V63H38V53L48,41.575l-2-2V29.993c2.007.278,4.008.609,6,1.007V3A101.962,101.962,0,0,0,12,3V31c1.992-.4,3.993-.729,6-1.007ZM32,5A10,10,0,1,1,22,15,10.011,10.011,0,0,1,32,5ZM20,29.733a102.049,102.049,0,0,1,24,0V40.5L37,47H33.761a4.142,4.142,0,1,0-3.522,0H27l-7-6.5Z"/><path d="M14,54a3,3,0,0,0-3-3H4a3,3,0,0,0-3,3v9H14Z"/><circle cx="7.5" cy="47.25" r="3.75"/><path d="M32,23a7.953,7.953,0,0,0,4.9-1.688L25.688,10.1A7.987,7.987,0,0,0,32,23Z"/><path d="M40,15A7.987,7.987,0,0,0,27.1,8.688L38.312,19.9A7.953,7.953,0,0,0,40,15Z"/><path d="M60,51H53a3,3,0,0,0-3,3v9H63V54A3,3,0,0,0,60,51Z"/><circle cx="56.5" cy="47.25" r="3.75"/><text x="0" y="79" fill="#000000" font-size="5px" font-weight="bold" font-family="'Helvetica Neue', Helvetica, Arial-Unicode, Arial, Sans-serif">Created by Kamin Ginkaew</text><text x="0" y="84" fill="#000000" font-size="5px" font-weight="bold" font-family="'Helvetica Neue', Helvetica, Arial-Unicode, Arial, Sans-serif">from the Noun Project</text></svg>