<svg xmlns="http://www.w3.org/2000/svg" xmlns:cc="http://creativecommons.org/ns#" xmlns:dc="http://purl.org/dc/elements/1.1/" xmlns:rdf="http://www.w3.org/1999/02/22-rdf-syntax-ns#" version="1.1" viewBox="0 0 26.458 33.0725" x="0px" y="0px"><g clip-rule="evenodd" fill-rule="evenodd" shape-rendering="geometricPrecision" stroke-width=".0089318"><path class="fil0" d="m13.147 12.461c1.3796 0.10441 2.3825 0.35665 2.4993 0.65738h0.01143v10.753h-0.01143c-0.15434 0.39648-1.8492 0.70892-3.9172 0.70892-2.068 0-3.7629-0.31244-3.9172-0.70892h-0.011433v-10.753h0.011433c0.11683-0.30074 1.1198-0.55297 2.4993-0.65738v0.30904c-1.0407 0.10182-1.7554 0.31208-1.7554 0.55502 0 0.34262 1.4208 0.6204 3.1732 0.6204 1.7526 0 3.1733-0.27778 3.1733-0.6204 0-0.24295-0.71455-0.4532-1.7553-0.55502z" image-rendering="optimizeQuality"/><path class="fil0" d="m11.73 9.4405c0.35879 0 0.64988 1.0448 0.64988 2.3336 0 0.5235-0.04814 1.0067-0.12915 1.396 0.0074-0.08825 0.01143-0.17971 0.01143-0.27349 0-0.73143-0.2383-1.3243-0.53216-1.3243-0.29386 0-0.53216 0.5929-0.53216 1.3243 0 0.09378 4e-3 0.18525 0.01143 0.27349-0.08101-0.38934-0.12915-0.87255-0.12915-1.396 0-1.2889 0.29109-2.3336 0.64988-2.3336z" image-rendering="optimizeQuality"/><path class="fil0" d="m19.85 6.4701c1.5846 0.11995 2.7365 0.4097 2.8707 0.7551h0.01313v0.067793l-0.05895 15.405v0.06788h-0.01313c-0.17739 0.45543-2.1242 0.81432-4.4994 0.81432-0.40792 0-0.80315-0.01045-1.179-0.03037l-0.04779-10.91v-0.06788h-0.01501c-0.14934-0.33557-1.4609-1.0195-3.2267-1.3563l0.015014-3.9228v-0.067793h0.01313c0.13416-0.34539 1.2862-0.63514 2.8707-0.7551v0.35504c-1.1953 0.11692-2.0162 0.35843-2.0162 0.63747 0 0.39354 1.6319 0.71258 3.6447 0.71258 2.0131 0 3.6449-0.31905 3.6449-0.71258 0-0.27903-0.82075-0.52055-2.0161-0.63747z" image-rendering="optimizeQuality"/><path class="fil0" d="m18.222 1.8783c0.41203 0 0.74643 1.4813 0.74643 3.3088 0 0.74224-0.05529 1.4274-0.14836 1.9794 0.0085-0.12505 0.01313-0.25474 0.01313-0.38773 0-1.0371-0.27376-1.8777-0.61121-1.8777-0.33753 0-0.6113 0.84066-0.6113 1.8777 0 0.133 0.0046 0.26269 0.01313 0.38773-0.09307-0.55199-0.14836-1.2371-0.14836-1.9794 0-1.8275 0.33441-3.3088 0.74652-3.3088z" image-rendering="optimizeQuality"/><path class="fil0" d="m9.0709 8.3254c0.628 0.047517 1.1779 0.12558 1.6017 0.22508-0.063148 0.11468-0.12335 0.23553-0.18042 0.36174-0.30717-0.11995-0.80753-0.21776-1.4213-0.27778zm0.85156 2.8429c-1.8351 0.31547-3.1312 1.0515-3.2879 1.4037h-0.015095v0.06788l0.03403 7.7794c-1.5917-0.081635-2.7892-0.35352-2.9178-0.68382h-0.011433v-10.753h0.011433c0.11683-0.30074 1.1198-0.55297 2.4993-0.65738v0.30904c-1.0407 0.10182-1.7554 0.31208-1.7554 0.55502 0 0.34263 1.4208 0.62041 3.1732 0.62041 1.073 0 2.0214-0.10415 2.5957-0.26349-0.15818 0.48955-0.27126 1.0342-0.3253 1.6123z" image-rendering="optimizeQuality"/><path class="fil0" d="m7.653 5.3049c0.35879 0 0.64988 1.0448 0.64988 2.3336 0 0.5235-0.048143 1.0067-0.12915 1.396 0.00741-0.088247 0.011433-0.17971 0.011433-0.27349 0-0.73143-0.2383-1.3243-0.53216-1.3243-0.29386 0-0.53216 0.5929-0.53216 1.3243 0 0.093784 0.00402 0.18525 0.011433 0.27349-0.081012-0.38934-0.12916-0.87255-0.12916-1.396 0-1.2889 0.29109-2.3336 0.64988-2.3336z" image-rendering="optimizeQuality"/></g><text x="0" y="41.458" fill="#000000" font-size="5px" font-weight="bold" font-family="'Helvetica Neue', Helvetica, Arial-Unicode, Arial, Sans-serif">Created by Bayu Ardhy</text><text x="0" y="46.458" fill="#000000" font-size="5px" font-weight="bold" font-family="'Helvetica Neue', Helvetica, Arial-Unicode, Arial, Sans-serif">from the Noun Project</text></svg>