<svg xmlns="http://www.w3.org/2000/svg" xmlns:xlink="http://www.w3.org/1999/xlink" version="1.1" x="0px" y="0px" viewBox="0 0 64 80" style="enable-background:new 0 0 64 64;" xml:space="preserve"><g><path d="M30,14.657v0.815l2,1.333l2-1.333v-0.815c-0.627,0.223-1.298,0.35-2,0.35S30.627,14.88,30,14.657z"/><path d="M40,20.169c0-0.862-0.55-1.624-1.368-1.896l-3.484-1.162L32,19.209l-3.148-2.099l-3.484,1.161   C24.55,18.545,24,19.307,24,20.169v8.838h16V20.169z"/><path d="M14,13.007c2.206,0,4-1.794,4-4v-2c0-2.206-1.794-4-4-4s-4,1.794-4,4v2C10,11.213,11.794,13.007,14,13.007z"/><path d="M50,13.007c2.206,0,4-1.794,4-4v-2c0-2.206-1.794-4-4-4s-4,1.794-4,4v2C46,11.213,47.794,13.007,50,13.007z"/><path d="M32,13.007c2.206,0,4-1.794,4-4v-2c0-2.206-1.794-4-4-4s-4,1.794-4,4v2C28,11.213,29.794,13.007,32,13.007z"/><path d="M12,14.657v0.815l2,1.333l2-1.333v-0.815c-0.627,0.223-1.298,0.35-2,0.35S12.627,14.88,12,14.657z"/><path d="M60,27.007c-0.552,0-1,0.448-1,1v33h2v-33C61,27.456,60.552,27.007,60,27.007z"/><path d="M48,14.657v0.815l2,1.333l2-1.333v-0.815c-0.627,0.223-1.298,0.35-2,0.35S48.627,14.88,48,14.657z"/><path d="M4,27.007c-0.552,0-1,0.448-1,1v33h2v-33C5,27.456,4.552,27.007,4,27.007z"/><path d="M56.632,18.273l-3.484-1.162L50,19.209l-3.148-2.099l-3.484,1.161C42.55,18.545,42,19.307,42,20.169v8.838h15v-1   c0-0.883,0.391-1.67,1-2.22v-5.618C58,19.307,57.45,18.545,56.632,18.273z"/><path d="M7,29.007h15v-8.838c0-0.862-0.55-1.624-1.368-1.896l-3.484-1.162L14,19.209l-3.148-2.099l-3.484,1.161   C6.55,18.545,6,19.307,6,20.169v5.618c0.609,0.549,1,1.337,1,2.22V29.007z"/><path d="M32,39.007c-5.523,0-10,4.477-10,10c0,2.038,0.613,3.931,1.66,5.512l13.852-13.852C35.931,39.62,34.038,39.007,32,39.007z"/><path d="M26.488,57.347c1.581,1.047,3.474,1.66,5.512,1.66c5.523,0,10-4.477,10-10c0-2.038-0.613-3.931-1.66-5.512L26.488,57.347z"/><path d="M7,51.007h13.172h0.007c-0.11-0.652-0.18-1.317-0.18-2c0-6.627,5.373-12,12-12s12,5.373,12,12c0,0.683-0.07,1.348-0.18,2   H57v-20H7V51.007z"/></g><text x="0" y="79" fill="#000000" font-size="5px" font-weight="bold" font-family="'Helvetica Neue', Helvetica, Arial-Unicode, Arial, Sans-serif">Created by Eucalyp</text><text x="0" y="84" fill="#000000" font-size="5px" font-weight="bold" font-family="'Helvetica Neue', Helvetica, Arial-Unicode, Arial, Sans-serif">from the Noun Project</text></svg>