<svg xmlns="http://www.w3.org/2000/svg" xmlns:xlink="http://www.w3.org/1999/xlink" version="1.1" x="0px" y="0px" viewBox="0 0 100 125" enable-background="new 0 0 100 100" xml:space="preserve"><path d="M83.42,42.006c1.411-3.235,1.998-4.545,1.65-9.394c-0.565-7.881-3.885-14.797-7.973-19.458  C66.777,1.388,39.164,1.636,27.234,11.988c-5.861,5.084-12.032,13.047-12.243,23.172c-0.267,12.797,5.456,21.061,10.712,29.077  c1.683,2.564,3.964,5.666,4.372,8.744c0.85,6.426-0.081,11.674-2.775,15.74c-1.888,2.85-3.598,5.33-5.4,7.564h42.706  c-2.104-3.879-2.847-10.273,0.078-10.266c4.332,0.125,7.42,1.17,11.74,0.516c3.262-0.495,5.276-1.393,5.903-4.372  c0.733-3.489-1.201-3.955-0.875-5.685c0.448-2.387,1.917-3.572,2.661-6.34c1.011-3.763-0.848-6.039,0.746-6.809  c2.104-1.32,3.938-1.238,5.773-3.029C93.668,57.455,81.771,46.229,83.42,42.006z M63.205,22.394  c1.161,0.569,0.506,2.036,0.016,2.803l-0.106,0.15l-1.802,2.941l-2.162,3.066l-1.446,2.052l-0.889,1.261  c-0.518,0.351-1.054,0.573-1.605,0.593c-0.837,0.028-2.035-0.785-2.255-1.617l7.858-11.145  C61.511,21.767,62.243,21.988,63.205,22.394z M58.731,17.677c1.429,0.733,1.486,1.911,0.85,2.972  c-0.216,0.599-0.508,0.999-0.867,1.612l-2.728,3.868c-0.002,0.004-0.005,0.008-0.008,0.011l-2.143,3.039  c-0.004,0.005-0.008,0.011-0.012,0.017l-0.92,1.177c-1.273,1.544-1.853,0.85-2.586,0.695c-0.965-0.425-2.315-0.502-1.848-1.976  c3.065,0.902,5.166-1.768,6.132-4.16l0.294-0.732l-1.004-0.454l-0.731-0.331c-0.256-0.136-0.53-0.282-0.914-0.475l0.399-0.564  l3.051-4.327C56.531,17.06,57.805,17.214,58.731,17.677z M51.646,15.008c3.904,1.323,0.344,5.03-1.186,7.181l-4.456-2.021  C47.315,18.035,48.697,14.473,51.646,15.008z M64.205,42.018c-0.447,1.705-1.15,3.599-2.463,4.255  c-1.969,1.081-2.791,1.869-3.404,3.623c-0.711,2.031-0.358,5.748-0.055,8.764H42.709c0.312-4.547,0.698-7.561-0.024-11.445  c-0.4-2.156-2.528-4.824-3.797-6.994c-1.268-2.168-3.787-4.825-3.598-7.196c0.108-1.356,1.66-3.985,2.95-5.855  c0.81-1.175,4.034-6.145,5.045-6c0.238,0.034,0.471,0.073,0.7,0.115l1.958,0.889l3.417,1.55l2.287,1.037l0.989,0.448  c-1.065,2.124-3.222,3.285-5.754,2.22c-1.401,1.789-1.495,1.975-1.998,2.735c4.721,1.36,6.381,3.94,6.468,8.458  c0.02,0.942-0.157,5.07,1.326,5.114c1.19-0.067,0.257-7.011,0.025-8.232c0.807,1.659,2.972,1.431,3.93,1.301  c0.092,2.413,1.215,2.669,3.256,2.832c2.476,0.196,3.982-1.506,5.367-3.029C64.714,39.982,64.71,40.099,64.205,42.018z   M64.035,35.366c-1.055,1.294-2.273,2.515-3.688,2.782c-0.819,0.154-2.652-0.277-2.399-1.6c0.018-0.089,0.051-0.188,0.082-0.287  l5.797-8.22c0.685-0.693,2.029-0.262,2.586,0.884C67.405,30.976,64.793,34.436,64.035,35.366z"/><text x="0" y="115" fill="#000000" font-size="5px" font-weight="bold" font-family="'Helvetica Neue', Helvetica, Arial-Unicode, Arial, Sans-serif">Created by corpus delicti</text><text x="0" y="120" fill="#000000" font-size="5px" font-weight="bold" font-family="'Helvetica Neue', Helvetica, Arial-Unicode, Arial, Sans-serif">from the Noun Project</text></svg>