<svg xmlns="http://www.w3.org/2000/svg" viewBox="0 0 25 31.25" x="0px" y="0px"><g><path d="M20.95,5.72a14.425,14.425,0,0,0-.9,4.96l-.71.26c-.01,0-.12.04-.31.1a22.728,22.728,0,0,1-6.03.95V3.21C15.85,4.97,20.45,5,20.5,5a.52.52,0,0,1,.43.24A.51.51,0,0,1,20.95,5.72Zm-1.94,6.37a23.919,23.919,0,0,1-6.01.9v8.87c1.47-.54,7-3.01,7-9.36,0-.25,0-.5.01-.74l-.33.12C19.65,11.89,19.41,11.97,19.01,12.09ZM5.32,11.88l-.33-.12c.01.24.01.49.01.74,0,6.35,5.53,8.82,7,9.36V12.99a23.919,23.919,0,0,1-6.01-.9C5.59,11.97,5.35,11.89,5.32,11.88ZM4.07,5.24a.51.51,0,0,0-.02.48,14.17,14.17,0,0,1,.9,4.96l.71.26c.01,0,.12.04.31.1a22.728,22.728,0,0,0,6.03.95V3.21C9.15,4.97,4.55,5,4.5,5A.52.52,0,0,0,4.07,5.24Z"/></g><text x="0" y="40" fill="#000000" font-size="5px" font-weight="bold" font-family="'Helvetica Neue', Helvetica, Arial-Unicode, Arial, Sans-serif">Created by The Icon Z</text><text x="0" y="45" fill="#000000" font-size="5px" font-weight="bold" font-family="'Helvetica Neue', Helvetica, Arial-Unicode, Arial, Sans-serif">from the Noun Project</text></svg>