<svg xmlns="http://www.w3.org/2000/svg" viewBox="0 0 21 21" height="21" width="21"><title>post-JP-11.svg</title><rect fill="none" x="0" y="0" width="21" height="21"></rect><path fill="#000" transform="translate(5 5)" d="M1,2.25a.75.75,0,0,1,.75-.75h7.5a.75.75,0,0,1,0,1.5H1.75A.75.75,0,0,1,1,2.25ZM9.25,3.999H1.75a.75.75,0,0,0,0,1.5H4.5v3a1,1,0,0,0,2,0v-3H9.25a.75.75,0,1,0,0-1.5Z" style="stroke-linejoin:round;stroke-miterlimit:4;" stroke="#000" stroke-width="10"></path><path fill="#fff" transform="translate(5 5)" d="M1,2.25a.75.75,0,0,1,.75-.75h7.5a.75.75,0,0,1,0,1.5H1.75A.75.75,0,0,1,1,2.25ZM9.25,3.999H1.75a.75.75,0,0,0,0,1.5H4.5v3a1,1,0,0,0,2,0v-3H9.25a.75.75,0,1,0,0-1.5Z"></path></svg>