<svg xmlns="http://www.w3.org/2000/svg" viewBox="0 0 21 21" height="21" width="21"><title>religious-shinto-11.svg</title><rect fill="none" x="0" y="0" width="21" height="21"></rect><path fill="#000" transform="translate(5 5)" d="M9.25,2.009H1.75a.75.75,0,0,0,0,1.5H2v5.25a.75.75,0,0,0,1.5,0V6.009h4v2.75a.75.75,0,0,0,1.5,0V3.509h.25a.75.75,0,0,0,0-1.5ZM7.5,4.759H6V3.509H7.5Zm-4-1.25H5v1.25H3.5Z" style="stroke-linejoin:round;stroke-miterlimit:4;" stroke="#000" stroke-width="10"></path><path fill="#fff" transform="translate(5 5)" d="M9.25,2.009H1.75a.75.75,0,0,0,0,1.5H2v5.25a.75.75,0,0,0,1.5,0V6.009h4v2.75a.75.75,0,0,0,1.5,0V3.509h.25a.75.75,0,0,0,0-1.5ZM7.5,4.759H6V3.509H7.5Zm-4-1.25H5v1.25H3.5Z"></path></svg>