<svg xmlns="http://www.w3.org/2000/svg" viewBox="0 0 25 25" height="25" width="25"><title>roadblock-15.svg</title><rect fill="none" x="0" y="0" width="25" height="25"></rect><path fill="#000" transform="translate(5 5)" d="M7.5,0C3.3579,0,0,3.3579,0,7.5S3.3579,15,7.5,15S15,11.6421,15,7.5S11.6421,0,7.5,0z M3,6h9v3H3V6z" style="stroke-linejoin:round;stroke-miterlimit:4;" stroke="#000" stroke-width="10"></path><path fill="#fff" transform="translate(5 5)" d="M7.5,0C3.3579,0,0,3.3579,0,7.5S3.3579,15,7.5,15S15,11.6421,15,7.5S11.6421,0,7.5,0z M3,6h9v3H3V6z"></path></svg>