<svg xmlns="http://www.w3.org/2000/svg" viewBox="0 0 21 21" height="21" width="21"><title>roadblock-11.svg</title><rect fill="none" x="0" y="0" width="21" height="21"></rect><path fill="#000" transform="translate(5 5)" d="M5.5,0C2.4624,0,0,2.4624,0,5.5S2.4624,11,5.5,11S11,8.5376,11,5.5S8.5376,0,5.5,0z M2,4.5h7v2H2V4.5z" style="stroke-linejoin:round;stroke-miterlimit:4;" stroke="#000" stroke-width="10"></path><path fill="#fff" transform="translate(5 5)" d="M5.5,0C2.4624,0,0,2.4624,0,5.5S2.4624,11,5.5,11S11,8.5376,11,5.5S8.5376,0,5.5,0z M2,4.5h7v2H2V4.5z"></path></svg>