<svg xmlns="http://www.w3.org/2000/svg" viewBox="0 0 21 21" height="21" width="21"><title>suitcase-11.svg</title><rect fill="none" x="0" y="0" width="21" height="21"></rect><path fill="#000" transform="translate(5 5)" d="M8,3V1.578L7.3601,1H3.6399
	L3,1.7477V3H1.5L1,3.5v6L1.5,10h8L10,9.5v-6L9.5,3H8z M4,2h3v1H4V2z" style="stroke-linejoin:round;stroke-miterlimit:4;" stroke="#000" stroke-width="10"></path><path fill="#fff" transform="translate(5 5)" d="M8,3V1.578L7.3601,1H3.6399
	L3,1.7477V3H1.5L1,3.5v6L1.5,10h8L10,9.5v-6L9.5,3H8z M4,2h3v1H4V2z"></path></svg>