<svg xmlns="http://www.w3.org/2000/svg" viewBox="0 0 21 21" height="21" width="21"><title>town-hall-11.svg</title><rect fill="none" x="0" y="0" width="21" height="21"></rect><path fill="#000" transform="translate(5 5)" d="M5.5,0L1,2v1h9V2L5.5,0z M2,4v4L1,9v1h9V9L9,8V4H2z M3,5h1v3H3V5z M5,5h1v3H5V5z M7,5h1v3H7V5z" style="stroke-linejoin:round;stroke-miterlimit:4;" stroke="#000" stroke-width="10"></path><path fill="#fff" transform="translate(5 5)" d="M5.5,0L1,2v1h9V2L5.5,0z M2,4v4L1,9v1h9V9L9,8V4H2z M3,5h1v3H3V5z M5,5h1v3H5V5z M7,5h1v3H7V5z"></path></svg>